FFmpeg version SVN-r25716, Copyright (c) 2000-2010 the FFmpeg developers  built on Nov 10 2010 12:23:18 with gcc 4.1.2 20080704 (Red Hat 4.1.2-48)  configuration: --enable-libmp3lame --enable-shared --disable-mmx --arch=x86_64  libavutil     50.33. 0 / 50.33. 0  libavcore      0.12. 1 /  0.12. 1  libavcodec    52.94. 4 / 52.94. 4  libavformat   52.84. 0 / 52.84. 0  libavdevice   52. 2. 2 / 52. 2. 2  libavfilter    1.59. 0 /  1.59. 0  libswscale     0.12. 0 /  0.12. 0Input #0, mov,mp4,m4a,3gp,3g2,mj2, from '/RAID10/data/converted_video_files/26304.mov':  Metadata:    major_brand     : qt      minor_version   : 0    compatible_brands: qt      encoder         : CoreMediaAuthoring 700, CoreMedia 484.20, i386    encoder-eng     : CoreMediaAuthoring 700, CoreMedia 484.20, i386  Duration: 00:00:40.20, start: 0.000000, bitrate: 1974 kb/s    Stream #0.0(eng): Video: h264, yuv420p, 512x512, 1971 kb/s, 24 fps, 24 tbr, 24 tbn, 48 tbc[buffer @ 0x1d96d360] w:512 h:512 pixfmt:yuv420pOutput #0, flv, to '/RAID10/data/converted_video_files/26304.flv':  Metadata:    encoder         : Lavf52.84.0    Stream #0.0(eng): Video: flv, yuv420p, 512x512, q=2-31, 600 kb/s, 1k tbn, 24 tbcStream mapping:  Stream #0.0 -> #0.0Press [q] to stop encodingframe=   42 fps=  0 q=31.0 size=     504kB time=1.75 bitrate=2361.1kbits/s    frame=   88 fps= 82 q=31.0 size=     607kB time=3.67 bitrate=1355.3kbits/s    frame=  131 fps= 85 q=31.0 size=     703kB time=5.46 bitrate=1054.6kbits/s    frame=  178 fps= 87 q=21.7 size=     812kB time=7.42 bitrate= 896.4kbits/s    frame=  224 fps= 88 q=26.3 size=     939kB time=9.33 bitrate= 824.3kbits/s    frame=  270 fps= 88 q=24.6 size=    1076kB time=11.25 bitrate= 783.3kbits/s    frame=  315 fps= 89 q=20.2 size=    1212kB time=13.12 bitrate= 756.2kbits/s    frame=  354 fps= 87 q=20.3 size=    1316kB time=14.75 bitrate= 731.1kbits/s    frame=  399 fps= 88 q=22.3 size=    1465kB time=16.62 bitrate= 722.1kbits/s    frame=  449 fps= 88 q=22.7 size=    1617kB time=18.71 bitrate= 707.9kbits/s    frame=  496 fps= 89 q=24.6 size=    1758kB time=20.67 bitrate= 696.7kbits/s    frame=  549 fps= 90 q=23.4 size=    1897kB time=22.88 bitrate= 679.2kbits/s    frame=  601 fps= 92 q=18.7 size=    2051kB time=25.04 bitrate= 671.1kbits/s    frame=  648 fps= 92 q=22.6 size=    2176kB time=27.00 bitrate= 660.2kbits/s    frame=  697 fps= 91 q=19.0 size=    2335kB time=29.04 bitrate= 658.6kbits/s    frame=  741 fps= 92 q=24.0 size=    2460kB time=30.88 bitrate= 652.6kbits/s    frame=  787 fps= 92 q=21.6 size=    2600kB time=32.79 bitrate= 649.5kbits/s    frame=  834 fps= 92 q=24.9 size=    2748kB time=34.75 bitrate= 647.8kbits/s    frame=  885 fps= 92 q=25.8 size=    2901kB time=36.88 bitrate= 644.5kbits/s    frame=  932 fps= 92 q=21.4 size=    3040kB time=38.83 bitrate= 641.2kbits/s    frame=  965 fps= 92 q=22.9 Lsize=    3144kB time=40.21 bitrate= 640.6kbits/s    video:3129kB audio:0kB global headers:0kB muxing overhead 0.488442%